HIERARCHY
ROOT Root
{
	OFFSET -2.573863 99.078728 -1.032762
	CHANNELS 6 Xposition Yposition Zposition Xrotation Yrotation Zrotation
	JOINT IKJnt_Grp
	{
		OFFSET 0.000000 0.000000 0.000000
		CHANNELS 6 Xposition Yposition Zposition Xrotation Yrotation Zrotation
		JOINT IKLegFrontR01_jnt
		{
			OFFSET -6.500005 -3.255150 10.015763
			CHANNELS 6 Xposition Yposition Zposition Xrotation Yrotation Zrotation
			JOINT IKLegFrontR02_jnt
			{
				OFFSET -9.719193 -0.000015 5.172733
				CHANNELS 6 Xposition Yposition Zposition Xrotation Yrotation Zrotation
				JOINT IKLegFrontR03_jnt
				{
					OFFSET 0.000000 -19.999985 0.000074
					CHANNELS 6 Xposition Yposition Zposition Xrotation Yrotation Zrotation
					JOINT IKLegFrontR04_jnt
					{
						OFFSET 0.000000 -21.000038 0.000074
						CHANNELS 6 Xposition Yposition Zposition Xrotation Yrotation Zrotation
						End Site
						{
							OFFSET 0.000000 21.000038 -0.000018
						}
					}
				}
			}
		}
		JOINT IKLegBackR01_jnt
		{
			OFFSET -6.500001 -3.255150 -11.802598
			CHANNELS 6 Xposition Yposition Zposition Xrotation Yrotation Zrotation
			JOINT IKLegBackR02_jnt
			{
				OFFSET -9.719196 -0.000031 -5.185904
				CHANNELS 6 Xposition Yposition Zposition Xrotation Yrotation Zrotation
				JOINT IKLegBackR03_jnt
				{
					OFFSET 0.000000 -20.000000 -0.000360
					CHANNELS 6 Xposition Yposition Zposition Xrotation Yrotation Zrotation
					JOINT IKLegBackR04_jnt
					{
						OFFSET 0.000000 -20.999943 0.000347
						CHANNELS 6 Xposition Yposition Zposition Xrotation Yrotation Zrotation
						End Site
						{
							OFFSET 0.000000 20.999943 -0.000370
						}
					}
				}
			}
		}
		JOINT IKLegFrontL01_jnt
		{
			OFFSET 6.498628 -3.255157 10.007559
			CHANNELS 6 Xposition Yposition Zposition Xrotation Yrotation Zrotation
			JOINT IKLegFrontL02_jnt
			{
				OFFSET 9.737183 -0.000008 5.180938
				CHANNELS 6 Xposition Yposition Zposition Xrotation Yrotation Zrotation
				JOINT IKLegFrontL03_jnt
				{
					OFFSET 0.000000 -19.993607 -0.505187
					CHANNELS 6 Xposition Yposition Zposition Xrotation Yrotation Zrotation
					JOINT IKLegFrontL04_jnt
					{
						OFFSET 0.000000 -20.999950 0.017213
						CHANNELS 6 Xposition Yposition Zposition Xrotation Yrotation Zrotation
						End Site
						{
							OFFSET 0.000000 20.999943 -0.017233
						}
					}
				}
			}
		}
		JOINT IKLegBackL01_jnt
		{
			OFFSET 6.500279 -3.255180 -11.808104
			CHANNELS 6 Xposition Yposition Zposition Xrotation Yrotation Zrotation
			JOINT IKLegBackL02_jnt
			{
				OFFSET 9.735531 0.000000 -5.180398
				CHANNELS 6 Xposition Yposition Zposition Xrotation Yrotation Zrotation
				JOINT IKLegBackL03_jnt
				{
					OFFSET 0.000000 -20.000000 -0.000086
					CHANNELS 6 Xposition Yposition Zposition Xrotation Yrotation Zrotation
					JOINT IKLegBackL04_jnt
					{
						OFFSET 0.000000 -20.999985 0.000101
						CHANNELS 6 Xposition Yposition Zposition Xrotation Yrotation Zrotation
						End Site
						{
							OFFSET 0.000000 20.999985 -0.000093
						}
					}
				}
			}
		}
	}
}
MOTION
Frames: 10
Frame Time: 0.016667
-2.573863 99.078728 -1.032762 -0.000000 0.000000 -0.000000 0.000000 0.000000 0.000000 -0.000000 0.000000 -0.000000 -6.500005 -3.255150 10.015763 -0.000000 0.000000 -0.000000 -9.719193 -0.000015 5.172733 -0.000000 0.000000 -0.000000 0.000000 -19.999985 0.000073 -0.000000 0.000000 -0.000000 0.000000 -21.000034 0.000072 -0.000000 0.000000 -0.000000 -6.500001 -3.255150 -11.802598 -0.000000 0.000000 -0.000000 -9.719196 -0.000031 -5.185904 0.000000 0.000000 -0.000000 0.000000 -20.000000 -0.000360 -0.000000 -0.000000 -0.000000 0.000000 -20.999947 0.000347 -0.000000 0.000000 0.000000 6.498628 -3.255157 10.007559 -0.000000 0.000000 -0.000000 9.737182 -0.000023 5.180937 -0.000000 0.000000 -0.000000 -0.000002 -19.993622 -0.505189 -0.000000 0.000000 -0.000000 -0.000002 -20.999954 0.017211 -0.000000 0.000000 -0.000000 6.500279 -3.255180 -11.808104 -0.000000 0.000000 -0.000000 9.735531 0.000000 -5.180398 -0.000000 0.000000 -0.000000 0.000000 -20.000000 -0.000086 -0.000000 0.000000 -0.000000 0.000000 -20.999989 0.000101 -0.000000 0.000000 -0.000000 
-2.573863 96.630241 -1.069265 -0.169800 0.000000 -0.000000 0.000000 0.000008 0.000000 -0.000000 0.000000 -0.000000 -6.500005 -3.255142 10.015763 -0.000000 0.000000 -0.000000 -9.719192 -0.000013 5.172733 17.831541 0.000000 0.000000 0.000001 -19.999994 0.000068 -30.675582 0.000000 -0.000001 -0.000002 -21.000031 0.000074 0.000001 0.000000 0.000000 -6.500000 -3.255150 -11.802599 -0.000000 -0.000000 -0.000000 -9.719196 -0.000005 -5.185902 16.079983 -0.000000 -0.000000 -0.000002 -19.999990 -0.000356 -30.354566 -0.000000 0.000000 -0.000000 -20.999943 0.000346 0.000000 0.000000 0.000000 6.498628 -3.255157 10.007559 -0.000000 0.000000 -0.000000 9.737182 -0.000016 5.180933 15.695394 -0.000001 0.000000 -0.000000 -19.993605 -0.505193 -29.092474 -0.000000 -0.000000 -0.000001 -20.999950 0.017213 -0.000000 -0.000000 -0.000000 6.500279 -3.255180 -11.808104 -0.000000 0.000000 -0.000000 9.735531 0.000021 -5.180396 15.178364 0.000000 -0.000000 0.000001 -19.999996 -0.000088 -30.556999 0.000000 -0.000000 0.000000 -20.999981 0.000104 -0.000001 0.000000 -0.000000 
-2.573863 94.578728 -1.032762 -0.000000 0.000000 -0.000000 0.000000 0.000000 0.000000 -0.000000 0.000000 -0.000000 -6.500005 -3.255150 10.015763 -0.000000 0.000000 -0.000000 -9.719192 -0.000005 5.172735 27.820049 0.000000 0.000001 0.000002 -19.999985 0.000066 -54.209620 0.000001 -0.000001 -0.000000 -21.000038 0.000075 0.000002 0.000000 0.000000 -6.500001 -3.255150 -11.802598 -0.000001 0.000000 -0.000000 -9.719195 -0.000024 -5.185903 27.819222 -0.000000 -0.000000 0.000001 -19.999989 -0.000363 -54.208100 -0.000000 0.000001 0.000000 -20.999939 0.000346 0.000000 -0.000000 -0.000000 6.498628 -3.255157 10.007559 -0.000000 0.000000 -0.000000 9.737182 -0.000013 5.180930 27.148376 -0.000001 0.000000 -0.000002 -19.993599 -0.505187 -52.734040 0.000000 -0.000000 -0.000001 -20.999943 0.017213 0.000001 0.000000 0.000000 6.500279 -3.255180 -11.808104 -0.000000 0.000000 -0.000000 9.735531 0.000003 -5.180395 27.819757 0.000000 -0.000000 0.000000 -19.999990 -0.000093 -54.209101 0.000000 -0.000000 -0.000001 -20.999989 0.000098 0.000001 0.000000 -0.000000 
-2.573863 93.675247 -0.931876 1.340100 0.000000 -0.000000 0.000000 0.000000 -0.000000 -0.000000 0.000000 -0.000000 -6.500005 -3.255142 10.015764 -0.000000 0.000000 -0.000000 -9.719192 -0.000013 5.172733 11.742608 0.000000 0.000001 0.000002 -19.999983 0.000069 -56.224495 0.000001 -0.000001 0.000002 -21.000042 0.000066 -0.000003 -0.000000 -0.000000 -6.500001 -3.255142 -11.802598 -0.000001 0.000000 -0.000000 -9.719195 -0.000026 -5.185904 25.806022 -0.000000 -0.000000 0.000001 -19.999992 -0.000362 -58.472696 -0.000000 0.000001 0.000002 -20.999939 0.000346 -0.000003 -0.000000 -0.000000 6.498628 -3.255150 10.007559 -0.000000 0.000000 -0.000000 9.737182 -0.000023 5.180937 24.959915 -0.000000 0.000000 -0.000001 -19.993605 -0.505190 -60.262868 0.000000 0.000000 -0.000001 -20.999947 0.017219 -0.000001 -0.000000 -0.000000 6.500279 -3.255173 -11.808105 -0.000000 0.000000 -0.000000 9.735531 -0.000006 -5.180397 33.154715 0.000000 -0.000000 0.000000 -20.000011 -0.000072 -56.915765 0.000000 -0.000000 -0.000001 -20.999989 0.000101 0.000001 0.000000 -0.000000 
-2.573863 93.254532 -0.448702 2.716796 0.000000 -0.000000 0.000000 0.000000 0.000000 -0.000000 0.000000 -0.000000 -6.500005 -3.255150 10.015763 -0.000000 0.000000 -0.000000 -9.719192 -0.000010 5.172731 -7.104202 0.000000 0.000001 0.000002 -19.999990 0.000073 -51.286910 0.000001 -0.000001 0.000002 -21.000034 0.000077 -0.000002 -0.000000 0.000000 -6.500001 -3.255158 -11.802598 -0.000001 0.000000 -0.000000 -9.719195 -0.000019 -5.185905 20.912482 -0.000000 -0.000000 0.000003 -20.000010 -0.000358 -56.408019 -0.000000 0.000001 -0.000000 -20.999943 0.000342 -0.000003 0.000000 0.000000 6.498628 -3.255157 10.007558 -0.000000 0.000000 -0.000000 9.737182 -0.000019 5.180935 20.357398 0.000000 -0.000000 -0.000001 -19.993595 -0.505187 -61.860750 0.000000 -0.000000 -0.000001 -20.999954 0.017206 -0.000003 0.000000 -0.000000 6.500279 -3.255188 -11.808103 -0.000000 0.000000 -0.000000 9.735531 0.000001 -5.180399 35.343777 0.000000 -0.000000 0.000000 -20.000000 -0.000080 -53.179139 0.000000 -0.000000 0.000000 -20.999985 0.000104 0.000002 0.000000 -0.000000 
-2.573863 92.892693 0.926999 2.985789 0.000000 -0.000000 0.000000 0.000008 0.000000 -0.000000 0.000000 -0.000000 -6.500005 -3.255157 10.015763 -0.000000 0.000000 -0.000000 -9.719192 -0.000013 5.172732 -7.016721 0.000000 0.000001 0.000002 -19.999977 0.000067 -49.687458 0.000001 -0.000001 0.000002 -21.000031 0.000068 -0.000002 0.000000 0.000000 -6.500001 -3.255150 -11.802598 -0.000001 0.000000 -0.000000 -9.719195 -0.000024 -5.185902 22.540591 -0.000000 -0.000000 0.000001 -20.000011 -0.000362 -58.196886 -0.000000 0.000001 -0.000000 -20.999947 0.000343 -0.000001 0.000000 0.000000 6.498628 -3.255165 10.007559 -0.000000 0.000000 -0.000000 9.737182 -0.000021 5.180933 23.446861 0.000000 -0.000000 -0.000001 -19.993603 -0.505189 -64.820599 0.000000 -0.000000 -0.000001 -20.999958 0.017209 0.000001 -0.000000 0.000000 6.500278 -3.255180 -11.808103 -0.000000 0.000000 -0.000000 9.735531 0.000007 -5.180398 36.922708 0.000000 -0.000000 0.000000 -19.999998 -0.000093 -54.385310 0.000000 -0.000000 -0.000001 -20.999985 0.000101 -0.000000 0.000000 -0.000000 
-2.573863 92.616631 2.609613 3.009563 0.000000 -0.000000 0.000000 0.000008 0.000000 -0.000000 0.000000 -0.000000 -6.500005 -3.255150 10.015763 -0.000000 0.000000 -0.000000 -9.719192 -0.000013 5.172732 -1.439056 0.000000 0.000001 -0.000000 -19.999987 0.000069 -49.876944 0.000001 -0.000001 -0.000002 -21.000034 0.000070 -0.000002 0.000000 0.000000 -6.500001 -3.255150 -11.802597 -0.000001 0.000000 -0.000000 -9.719195 -0.000030 -5.185900 25.688995 -0.000000 -0.000000 0.000003 -20.000006 -0.000362 -59.981929 -0.000000 0.000001 0.000004 -20.999943 0.000348 -0.000003 -0.000000 -0.000000 6.498628 -3.255150 10.007560 -0.000000 0.000000 -0.000000 9.737182 -0.000017 5.180935 28.193266 0.000001 -0.000000 0.000000 -19.993603 -0.505206 -67.147125 0.000000 -0.000000 0.000001 -20.999947 0.017203 0.000001 0.000000 0.000000 6.500279 -3.255180 -11.808103 -0.000000 0.000000 -0.000000 9.735531 0.000010 -5.180397 37.996428 0.000000 -0.000000 0.000000 -20.000004 -0.000085 -55.841950 0.000000 -0.000000 0.000001 -20.999977 0.000104 -0.000000 0.000000 -0.000000 
-2.573863 92.256737 4.130876 3.340852 0.000000 -0.000000 0.000000 0.000008 -0.000000 -0.000000 0.000000 -0.000000 -6.500005 -3.255150 10.015764 -0.000000 0.000000 -0.000000 -9.719192 -0.000008 5.172736 3.000921 0.000000 0.000001 -0.000000 -19.999983 0.000067 -55.106294 0.000001 -0.000001 -0.000000 -21.000031 0.000076 -0.000003 0.000000 0.000000 -6.500000 -3.255150 -11.802598 -0.000000 -0.000000 -0.000000 -9.719197 -0.000024 -5.185899 28.487725 -0.000000 -0.000000 -0.000001 -20.000006 -0.000363 -61.497043 -0.000000 0.000001 0.000000 -20.999939 0.000350 0.000000 -0.000000 -0.000000 6.498628 -3.255157 10.007559 -0.000000 0.000000 -0.000000 9.737182 -0.000000 5.180935 31.659798 0.000000 -0.000000 -0.000001 -19.993610 -0.505198 -69.510767 0.000000 0.000000 -0.000001 -20.999950 0.017215 0.000001 0.000000 -0.000000 6.500279 -3.255180 -11.808103 -0.000000 0.000000 -0.000000 9.735531 0.000007 -5.180400 39.861995 0.000000 -0.000000 0.000001 -20.000004 -0.000082 -56.825620 0.000000 -0.000000 0.000001 -20.999977 0.000102 0.000001 0.000000 -0.000000 
-2.573863 91.978722 5.648980 3.764592 0.000000 -0.000000 0.000000 0.000000 -0.000000 -0.000000 0.000000 -0.000000 -6.500005 -3.255157 10.015763 -0.000000 0.000000 -0.000000 -9.719192 -0.000022 5.172734 7.558150 0.000000 0.000001 -0.000002 -19.999975 0.000066 -61.265964 0.000001 -0.000001 0.000000 -21.000034 0.000083 0.000002 -0.000000 -0.000000 -6.500001 -3.255157 -11.802598 -0.000000 0.000000 -0.000000 -9.719196 -0.000028 -5.185908 30.944537 -0.000001 -0.000000 0.000001 -20.000000 -0.000364 -62.151163 -0.000000 0.000001 -0.000000 -20.999939 0.000348 0.000000 0.000000 0.000000 6.498628 -3.255165 10.007560 -0.000000 0.000000 -0.000000 9.737182 -0.000011 5.180926 34.657886 0.000000 -0.000000 -0.000003 -19.993603 -0.505194 -71.207447 0.000000 -0.000000 -0.000001 -20.999947 0.017218 0.000001 0.000000 -0.000000 6.500279 -3.255180 -11.808105 -0.000000 0.000000 -0.000000 9.735531 -0.000005 -5.180403 41.478783 0.000000 -0.000000 0.000000 -20.000008 -0.000085 -56.815566 0.000000 -0.000000 0.000000 -20.999989 0.000101 -0.000000 0.000000 -0.000000 
-2.573863 91.939926 7.165504 4.257672 0.000000 -0.000000 0.000000 0.000000 -0.000000 -0.000000 0.000000 -0.000000 -6.500005 -3.255157 10.015762 -0.000000 0.000000 -0.000000 -9.719192 -0.000010 5.172733 11.057584 0.000000 0.000001 0.000000 -19.999983 0.000076 -64.735502 0.000001 -0.000001 0.000002 -21.000034 0.000077 -0.000000 -0.000000 0.000000 -6.500000 -3.255157 -11.802598 -0.000000 -0.000000 -0.000000 -9.719196 -0.000026 -5.185905 32.264219 -0.000001 0.000000 0.000001 -19.999996 -0.000364 -60.990099 -0.000000 0.000001 0.000000 -20.999939 0.000349 0.000002 -0.000000 -0.000000 6.498628 -3.255165 10.007560 -0.000000 0.000000 -0.000000 9.737182 -0.000010 5.180928 36.914608 -0.000000 0.000000 -0.000001 -19.993607 -0.505206 -71.541648 0.000000 0.000000 -0.000003 -20.999947 0.017215 0.000001 0.000000 0.000000 6.500279 -3.255188 -11.808103 -0.000000 0.000000 -0.000000 9.735531 0.000002 -5.180400 42.073624 0.000000 -0.000000 0.000000 -20.000002 -0.000082 -54.702500 0.000000 -0.000000 0.000001 -20.999981 0.000099 -0.000000 0.000000 -0.000000 
